<?xml version="1.0" encoding="iso-8859-1"?>
<!-- Generator: Adobe Illustrator 19.0.0, SVG Export Plug-In . SVG Version: 6.00 Build 0)  -->
<svg version="1.1" id="Capa_1" xmlns="http://www.w3.org/2000/svg" xmlns:xlink="http://www.w3.org/1999/xlink" x="0px" y="0px"
	 viewBox="0 0 490.667 490.667" style="enable-background:new 0 0 490.667 490.667;" xml:space="preserve">
<path style="fill:#65CCD8;" d="M437.333,64v330.667l-128-128L256,320l-64-64L53.333,394.667V64c0-5.867,4.8-10.667,10.667-10.667
	h362.667C432.533,53.333,437.333,58.133,437.333,64z"/>
<path style="fill:#F6B445;" d="M437.333,394.667v32c0,5.867-4.8,10.667-10.667,10.667h-53.333L256,320l53.333-53.333
	L437.333,394.667z"/>
<path style="fill:#FED049;" d="M373.333,437.333H64c-5.867,0-10.667-4.8-10.667-10.667v-32L192,256l64,64L373.333,437.333z"/>
<g>
	<path style="fill:#F1F2F2;" d="M53.333,426.667c0,5.867,4.8,10.667,10.667,10.667h309.333h53.333c5.867,0,10.667-4.8,10.667-10.667
		v-32V64c0-5.867-4.8-10.667-10.667-10.667H64c-5.867,0-10.667,4.8-10.667,10.667v330.667V426.667z M490.667,21.333v448
		c0,11.733-9.6,21.333-21.333,21.333h-448C9.6,490.667,0,481.067,0,469.333v-448C0,9.6,9.6,0,21.333,0h448
		C481.067,0,490.667,9.6,490.667,21.333z"/>
	<circle style="fill:#F1F2F2;" cx="256" cy="160" r="53.333"/>
</g>
<g>
</g>
<g>
</g>
<g>
</g>
<g>
</g>
<g>
</g>
<g>
</g>
<g>
</g>
<g>
</g>
<g>
</g>
<g>
</g>
<g>
</g>
<g>
</g>
<g>
</g>
<g>
</g>
<g>
</g>
</svg>
